<mxfile host="app.diagrams.net" agent="Mozilla/5.0 (Windows NT 10.0; Win64; x64) AppleWebKit/537.36 (KHTML, like Gecko) Chrome/129.0.0.0 Safari/537.36" version="24.7.8">
  <diagram name="Sida-1" id="-QnTiUM40FoB1lC4DsPG">
    <mxGraphModel dx="1333" dy="651" grid="1" gridSize="10" guides="1" tooltips="1" connect="1" arrows="1" fold="1" page="1" pageScale="1" pageWidth="827" pageHeight="1169" math="0" shadow="0">
      <root>
        <mxCell id="0" />
        <mxCell id="1" parent="0" />
        <mxCell id="bS8BetDVuJCKKr0yRUMI-1" value="&lt;i&gt;Vehicle&lt;/i&gt;" style="swimlane;whiteSpace=wrap;html=1;" vertex="1" parent="1">
          <mxGeometry x="340" y="90" width="250" height="150" as="geometry" />
        </mxCell>
        <mxCell id="bS8BetDVuJCKKr0yRUMI-2" value="&lt;i&gt;move&lt;/i&gt;(Road road, TrafficRule rule) void" style="text;html=1;align=left;verticalAlign=middle;resizable=0;points=[];autosize=1;strokeColor=none;fillColor=none;" vertex="1" parent="bS8BetDVuJCKKr0yRUMI-1">
          <mxGeometry x="30" y="48" width="230" height="30" as="geometry" />
        </mxCell>
        <mxCell id="bS8BetDVuJCKKr0yRUMI-5" value="&lt;i&gt;getType&lt;/i&gt;() String" style="text;html=1;align=left;verticalAlign=middle;resizable=0;points=[];autosize=1;strokeColor=none;fillColor=none;" vertex="1" parent="bS8BetDVuJCKKr0yRUMI-1">
          <mxGeometry x="30" y="78" width="110" height="30" as="geometry" />
        </mxCell>
        <mxCell id="bS8BetDVuJCKKr0yRUMI-6" value="Car" style="swimlane;whiteSpace=wrap;html=1;" vertex="1" parent="1">
          <mxGeometry x="70" y="300" width="240" height="190" as="geometry" />
        </mxCell>
        <mxCell id="bS8BetDVuJCKKr0yRUMI-7" value="move(Road road, TrafficRule rule) void" style="text;html=1;align=left;verticalAlign=middle;resizable=0;points=[];autosize=1;strokeColor=none;fillColor=none;" vertex="1" parent="bS8BetDVuJCKKr0yRUMI-6">
          <mxGeometry x="15" y="110" width="230" height="30" as="geometry" />
        </mxCell>
        <mxCell id="bS8BetDVuJCKKr0yRUMI-8" value="getType() String" style="text;html=1;align=left;verticalAlign=middle;resizable=0;points=[];autosize=1;strokeColor=none;fillColor=none;" vertex="1" parent="bS8BetDVuJCKKr0yRUMI-6">
          <mxGeometry x="15" y="140" width="110" height="30" as="geometry" />
        </mxCell>
        <mxCell id="bS8BetDVuJCKKr0yRUMI-12" value="" style="line;strokeWidth=1;fillColor=none;align=left;verticalAlign=middle;spacingTop=-1;spacingLeft=3;spacingRight=3;rotatable=0;labelPosition=right;points=[];portConstraint=eastwest;strokeColor=inherit;" vertex="1" parent="bS8BetDVuJCKKr0yRUMI-6">
          <mxGeometry y="102" width="240" height="8" as="geometry" />
        </mxCell>
        <mxCell id="bS8BetDVuJCKKr0yRUMI-25" value="Bus" style="swimlane;whiteSpace=wrap;html=1;" vertex="1" parent="1">
          <mxGeometry x="340" y="300" width="250" height="190" as="geometry" />
        </mxCell>
        <mxCell id="bS8BetDVuJCKKr0yRUMI-26" value="move(Road road, TrafficRule rule) void" style="text;html=1;align=left;verticalAlign=middle;resizable=0;points=[];autosize=1;strokeColor=none;fillColor=none;" vertex="1" parent="bS8BetDVuJCKKr0yRUMI-25">
          <mxGeometry x="15" y="110" width="230" height="30" as="geometry" />
        </mxCell>
        <mxCell id="bS8BetDVuJCKKr0yRUMI-27" value="getType() String" style="text;html=1;align=left;verticalAlign=middle;resizable=0;points=[];autosize=1;strokeColor=none;fillColor=none;" vertex="1" parent="bS8BetDVuJCKKr0yRUMI-25">
          <mxGeometry x="15" y="140" width="110" height="30" as="geometry" />
        </mxCell>
        <mxCell id="bS8BetDVuJCKKr0yRUMI-28" value="" style="line;strokeWidth=1;fillColor=none;align=left;verticalAlign=middle;spacingTop=-1;spacingLeft=3;spacingRight=3;rotatable=0;labelPosition=right;points=[];portConstraint=eastwest;strokeColor=inherit;" vertex="1" parent="bS8BetDVuJCKKr0yRUMI-25">
          <mxGeometry y="102" width="250" height="8" as="geometry" />
        </mxCell>
        <mxCell id="bS8BetDVuJCKKr0yRUMI-33" value="" style="endArrow=block;endFill=1;html=1;edgeStyle=orthogonalEdgeStyle;align=left;verticalAlign=top;rounded=0;exitX=0.5;exitY=0;exitDx=0;exitDy=0;entryX=0.5;entryY=1;entryDx=0;entryDy=0;" edge="1" parent="1" source="bS8BetDVuJCKKr0yRUMI-25" target="bS8BetDVuJCKKr0yRUMI-1">
          <mxGeometry x="-1" y="-46" relative="1" as="geometry">
            <mxPoint x="590" y="270" as="sourcePoint" />
            <mxPoint x="750" y="270" as="targetPoint" />
            <mxPoint x="-11" y="30" as="offset" />
          </mxGeometry>
        </mxCell>
        <mxCell id="bS8BetDVuJCKKr0yRUMI-35" value="" style="endArrow=block;endFill=1;html=1;edgeStyle=orthogonalEdgeStyle;align=left;verticalAlign=top;rounded=0;exitX=0.5;exitY=0;exitDx=0;exitDy=0;entryX=0;entryY=0.5;entryDx=0;entryDy=0;" edge="1" parent="1" source="bS8BetDVuJCKKr0yRUMI-6" target="bS8BetDVuJCKKr0yRUMI-1">
          <mxGeometry x="-0.6491" y="70" relative="1" as="geometry">
            <mxPoint x="130" y="265" as="sourcePoint" />
            <mxPoint x="280.45" y="130" as="targetPoint" />
            <mxPoint as="offset" />
          </mxGeometry>
        </mxCell>
      </root>
    </mxGraphModel>
  </diagram>
</mxfile>
